<svg id="visual" viewBox="0 0 960 540" width="960" height="540" xmlns="http://www.w3.org/2000/svg" xmlns:xlink="http://www.w3.org/1999/xlink" version="1.1"><rect x="0" y="0" width="960" height="540" fill="#ffffff"></rect><defs><linearGradient id="grad1_0" x1="43.8%" y1="0%" x2="100%" y2="100%"><stop offset="14.444444444444446%" stop-color="#ffffff" stop-opacity="1"></stop><stop offset="85.55555555555554%" stop-color="#ffffff" stop-opacity="1"></stop></linearGradient></defs><defs><linearGradient id="grad2_0" x1="0%" y1="0%" x2="56.3%" y2="100%"><stop offset="14.444444444444446%" stop-color="#ffffff" stop-opacity="1"></stop><stop offset="85.55555555555554%" stop-color="#ffffff" stop-opacity="1"></stop></linearGradient></defs><g transform="translate(960, 0)"><path d="M0 486C-66.1 481.2 -132.2 476.3 -186 449C-239.8 421.7 -281.4 371.9 -326 326C-370.6 280.1 -418.1 238.1 -445.3 184.5C-472.5 130.8 -479.2 65.4 -486 0L0 0Z" fill="#c05621"></path></g><g transform="translate(0, 540)"><path d="M0 -486C66.8 -482.3 133.7 -478.6 186 -449C238.3 -419.4 276.1 -363.9 316.1 -316.1C356 -268.3 398.2 -228.2 426.8 -176.8C455.5 -125.4 470.8 -62.7 486 0L0 0Z" fill="#c05621"></path></g></svg>